Coordinates																																									
version=1																																									
nRows=38																																									
nColumns=42																																									
inDegrees=yes																																									
																																									
"Units are S.I. units (second, meters, Newtons, ...)"																																									
Angles are in degrees.																																									
																																									
endheader																																									
time	pelvis_tx	pelvis_ty	pelvis_tz	pelvis_tilt	pelvis_list	pelvis_rotation	hip_flexion_r	hip_adduction_r	hip_rotation_r	knee_angle_r	ankle_angle_r	subtalar_angle_r	mtp_angle_r	hip_flexion_l	hip_adduction_l	hip_rotation_l	knee_angle_l	ankle_angle_l	subtalar_angle_l	mtp_angle_l	lumbar_extension	lumbar_bending	lumbar_rotation	ground_force_vx	ground_force_vy	ground_force_vz	ground_force_px	ground_force_py	ground_force_pz	ground_force_vx	ground_force_vy	ground_force_vz	ground_force_px	ground_force_py	ground_force_pz	ground_torque_x	ground_torque_y	ground_torque_z	ground_torque_x	ground_torque_y	ground_torque_z
1.68	0.317735	0.673296	-0.187856	3.454926	-17.133963	93.753906	44.990586	2.175499	-5.480373	-43.007218	9.215558	0	0	7.764335	-2.195108	0.197521	-39.950026	10.811391	0	0	28.030429	0.2016	-7.763662	-10.345077	159.467056	34.487679	0.390537	-0.005382	-0.312518	0.844415	89.12674	-28.829319	0.278583	0.000343	0.097112	-0.007263	0.63871	0.012983	0.000557	0.106193	-0.001949
1.69	0.319441	0.672079	-0.197833	3.694249	-17.006409	93.929573	44.321975	2.55949	-5.653613	-43.965754	10.289644	0	0	7.933221	-2.614231	0.484322	-41.320271	8.114336	0	0	28.17784	0.378345	-7.633227	-11.981804	189.978714	39.445957	0.389924	-0.006133	-0.313153	-0.416231	69.369034	-23.519688	0.279069	-0.000074	0.094393	-0.007928	0.697188	0.014172	0.000478	0.091201	-0.001674
1.7	0.321173	0.670863	-0.207676	3.97443	-16.870777	94.12384	43.691142	3.002877	-5.771116	-44.957743	11.31337	0	0	8.20806	-3.04947	0.859544	-42.924959	5.492371	0	0	28.279637	0.58125	-7.549245	-13.759922	217.869614	43.589191	0.389385	-0.006697	-0.313762	-1.310818	51.431507	-17.933634	0.279724	-0.000322	0.092001	-0.008035	0.706599	0.014363	0.000415	0.079193	-0.001454
1.71	0.322882	0.669684	-0.217238	4.297978	-16.727421	94.341187	43.11754	3.503321	-5.820089	-45.975028	12.226337	0	0	8.656746	-3.481378	1.352532	-44.820862	3.07921	0	0	28.312089	0.809636	-7.526944	-15.694611	241.97316	46.721935	0.388936	-0.007075	-0.314309	-1.79967	36.046032	-12.583282	0.280635	-0.000427	0.089383	-0.007563	0.665087	0.013519	0.000385	0.073495	-0.001349
1.72	0.324524	0.668574	-0.226416	4.658555	-16.574234	94.582687	42.610408	4.039608	-5.818659	-47.013247	12.982972	0	0	9.314569	-3.890488	1.968801	-47.020317	0.971064	0	0	28.263044	1.058363	-7.563722	-17.733624	261.591003	48.748528	0.388612	-0.007284	-0.314783	-1.918148	23.595997	-7.935022	0.281948	-0.000438	0.085791	-0.006598	0.580244	0.011794	0.000395	0.075394	-0.001384
1.73	0.326069	0.667559	-0.235157	5.042554	-16.409643	94.843224	42.170875	4.580809	-5.802037	-48.068276	13.555417	0	0	10.188132	-4.259393	2.686252	-49.495587	-0.759195	0	0	28.13198	1.318875	-7.642012	-19.771788	276.426025	49.664955	0.388443	-0.007353	-0.315202	0	0	0	0	0	0	-0.005299	0.465981	0.009472	0	0	0
1.74	0.327502	0.66666	-0.243445	5.43062	-16.235416	95.113464	41.795341	5.09208	-5.808945	-49.133891	13.934458	0	0	11.264403	-4.570657	3.466415	-52.189305	-2.053391	0	0	27.928321	1.578681	-7.736261	-21.669104	286.52475	49.571732	0.388432	-0.007309	-0.315598	0	0	0	0	0	0	-0.003865	0.339884	0.006909	0	0	0
1.75	0.328815	0.66589	-0.251296	5.798606	-16.057087	95.381645	41.477143	5.538621	-5.870438	-50.201064	14.128348	0	0	12.518139	-4.804781	4.266268	-55.024984	-2.868318	0	0	27.668075	1.820815	-7.817999	-23.295366	292.227844	48.637821	0.388558	-0.007184	-0.316004	0	0	0	0	0	0	-0.002492	0.219171	0.004455	0	0	0
1.76	0.330016	0.665259	-0.258745	6.121175	-15.882648	95.63324	41.207078	5.892528	-6.002127	-51.257226	14.158393	0	0	13.917838	-4.94397	5.041469	-57.917819	-3.179364	0	0	27.370233	2.026867	-7.858289	-24.571772	294.12558	47.05798	0.388786	-0.007008	-0.316441	0	0	0	0	0	0	-0.001329	0.116916	0.002377	0	0	0
1.77	0.331122	0.664768	-0.265841	6.377144	-15.721777	95.853294	40.974902	6.137479	-6.204153	-52.28643	14.053418	0	0	15.432445	-4.97756	5.749085	-60.784927	-2.984739	0	0	27.054851	2.181489	-7.832204	-25.483837	292.971252	45.025131	0.389075	-0.006803	-0.316916	0	0	0	0	0	0	-0.000458	0.040252	0.000818	0	0	0
1.78	0.332154	0.664413	-0.272639	6.552751	-15.584677	96.029579	40.770806	6.2688	-6.465654	-53.271186	13.845181	0	0	17.036013	-4.904238	6.352074	-63.552725	-2.308739	0	0	26.741294	2.274859	-7.723783	-26.063387	289.575104	42.725708	0.389389	-0.006589	-0.317427	0	0	0	0	0	0	0.000093	-0.008206	-0.000167	0	0	0
1.79	0.33313	0.664184	-0.279196	6.642671	-15.479881	96.153824	40.585158	6.292658	-6.768522	-54.194413	13.565015	0	0	18.708318	-4.732374	6.821758	-66.160539	-1.201295	0	0	26.445755	2.303688	-7.528291	-26.364761	284.706604	40.32019	0.389695	-0.00638	-0.317965	0	0	0	0	0	0	0.000346	-0.030387	-0.000618	0	0	0
1.8	0.334066	0.664065	-0.285562	6.64882	-15.412402	96.221428	40.407864	6.22389	-7.090202	-55.041097	13.241954	0	0	20.433505	-4.478031	7.138725	-68.561466	0.265965	0	0	26.17928	2.270614	-7.251286	-26.444681	279.030579	37.923565	0.389962	-0.006184	-0.318517	0	0	0	0	0	0	0.000351	-0.03091	-0.000628	0	0	0
1.81	0.334974	0.664043	-0.291786	6.57618	-15.383245	96.230049	40.228547	6.081325	-7.405172	-55.800193	12.901895	0	0	22.198316	-4.159875	7.29185	-70.720667	2.004239	0	0	25.94696	2.180895	-6.903542	-26.35046	273.088867	35.596992	0.390167	-0.006008	-0.319053	0	0	0	0	0	0	0.000163	-0.014329	-0.000291	0	0	0
1.82	0.335863	0.664105	-0.297905	6.429701	-15.389504	96.178421	40.03666	5.884167	-7.686801	-56.465478	12.566853	0	0	23.990298	-3.795487	7.276533	-72.61308	3.914517	0	0	25.748048	2.039758	-6.496417	-26.120457	267.284058	33.358353	0.390299	-0.005852	-0.319541	0	0	0	0	0	0	-0.000176	0.015481	0.000315	0	0	0
1.83	0.336736	0.664239	-0.30395	6.214832	-15.424352	96.067482	39.820959	5.650138	-7.912149	-57.034904	12.25474	0	0	25.796457	-3.400539	7.095405	-74.222013	5.898704	0	0	25.576625	1.852898	-6.041909	-25.793892	261.893463	31.191395	0.390356	-0.005717	-0.319954	0	0	0	0	0	0	-0.000625	0.054966	0.001117	0	0	0
1.84	0.337588	0.664439	-0.309946	5.937773	-15.477607	95.901581	39.569441	5.393204	-8.066049	-57.510159	11.980121	0	0	27.602396	-2.987553	6.759002	-75.537535	7.868979	0	0	25.422845	1.626909	-5.552824	-25.401068	257.083038	29.054825	0.390337	-0.0056	-0.320257	0	0	0	0	0	0	-0.001151	0.101201	0.002057	0	0	0
1.85	0.338407	0.664697	-0.315909	5.604749	-15.537719	95.687836	39.270842	5.122483	-8.141796	-57.896208	11.754942	0	0	29.392906	-2.56505	6.283841	-76.554666	9.752141	0	0	25.275224	1.3684	-5.04125	-24.948326	252.930145	26.908876	0.39024	-0.005502	-0.320421	0	0	0	0	0	0	-0.00175	0.1539	0.003128	0	0	0
1.86	0.339176	0.665004	-0.321852	5.223094	-15.594671	95.435867	38.916963	4.843717	-8.14107	-58.199837	11.588336	0	0	31.154282	-2.138866	5.691046	-77.272409	11.492128	0	0	25.123825	1.084036	-4.519243	-24.42271	249.449432	24.735004	0.390062	-0.005423	-0.320424	0	0	0	0	0	0	-0.002438	0.21441	0.004358	0	0	0
1.87	0.339877	0.66535	-0.327781	4.803659	-15.642412	95.157837	38.504648	4.562287	-8.073594	-58.427685	11.485565	0	0	32.87687	-1.714782	5.006205	-77.6939	13.052195	0	0	24.963061	0.782112	-4.000072	-23.7952	246.631348	22.535048	0.389797	-0.005358	-0.32025	0	0	0	0	0	0	-0.003237	0.284669	0.005786	0	0	0
1.88	0.340497	0.665714	-0.333703	4.362793	-15.679866	94.867226	38.036302	4.286991	-7.954891	-58.58452	11.446538	0	0	34.556038	-1.301764	4.258091	-77.826577	14.415869	0	0	24.792972	0.474831	-3.495214	-23.036541	244.461884	20.32332	0.389435	-0.005305	-0.319896	0	0	0	0	0	0	-0.004162	0.366035	0.00744	0	0	0
1.89	0.341026	0.666074	-0.339619	3.921409	-15.710429	94.576828	37.519073	4.031098	-7.802705	-58.672691	11.465559	0	0	36.191062	-0.912378	3.476239	-77.681422	15.58537	0	0	24.618689	0.178317	-3.010592	-22.130028	242.939606	18.11599	0.388973	-0.00526	-0.319366	0	0	0	0	0	0	-0.005215	0.458618	0.009322	0	0	0
1.9	0.341464	0.666409	-0.345534	3.499311	-15.740999	94.296837	36.963686	3.807775	-7.6329	-58.693646	11.533119	0	0	37.782513	-0.557992	2.687268	-77.270272	16.576633	0	0	24.448744	-0.092512	-2.548875	-21.083809	242.069626	15.917989	0.388413	-0.005221	-0.318689	0	0	0	0	0	0	-0.006381	0.561161	0.011407	0	0	0
1.91	0.34181	0.666698	-0.351451	3.1084	-15.78084	94.033569	36.383605	3.62309	-7.45664	-58.650725	11.638732	0	0	39.329766	-0.242165	1.911576	-76.603065	17.412678	0	0	24.293274	-0.330422	-2.113893	-19.929863	241.845245	13.716453	0.387769	-0.005185	-0.3179	0	0	0	0	0	0	-0.007627	0.670695	0.013633	0	0	0
1.92	0.342064	0.666927	-0.357375	2.751717	-15.839934	93.79216	35.793463	3.472474	-7.28292	-58.550513	11.77298	0	0	40.830007	0.042709	1.166048	-75.687894	18.118199	0	0	24.1623	-0.536475	-1.711797	-18.715515	242.231323	11.491146	0.387062	-0.005151	-0.317035	0	0	0	0	0	0	-0.0089	0.782697	0.01591	0	0	0
1.93	0.342213	0.667085	-0.363312	2.431525	-15.926662	93.580948	35.205927	3.347153	-7.123968	-58.400125	11.926591	0	0	42.279086	0.308723	0.470309	-74.535047	18.716673	0	0	24.064138	-0.712612	-1.351749	-17.49835	243.143204	9.230655	0.386314	-0.005119	-0.316132	0	0	0	0	0	0	-0.010138	0.891523	0.018122	0	0	0
1.94	0.342252	0.667166	-0.36927	2.156562	-16.045851	93.41008	34.628926	3.245186	-6.993915	-58.203518	12.088267	0	0	43.672072	0.559873	-0.155246	-73.160683	19.228238	0	0	24.00416	-0.85492	-1.043568	-16.337923	244.44165	6.939131	0.385556	-0.005089	-0.315227	0	0	0	0	0	0	-0.011282	0.99219	0.020168	0	0	0
1.95	0.342185	0.667174	-0.375263	1.933268	-16.197895	93.283379	34.065674	3.16751	-6.899497	-57.964462	12.24647	0	0	45.000169	0.794072	-0.70041	-71.584043	19.665692	0	0	23.983793	-0.960326	-0.788687	-15.284895	245.941299	4.633446	0.384822	-0.005065	-0.314353	0	0	0	0	0	0	-0.012291	1.080876	0.021971	0	0	0
1.96	0.342023	0.66712	-0.381311	1.748876	-16.378662	93.192581	33.516257	3.101134	-6.833327	-57.693604	12.393891	0	0	46.246118	1.01938	-1.172381	-69.820837	20.030141	0	0	24.000016	-1.040554	-0.573305	-14.381666	247.428146	2.345491	0.384139	-0.005051	-0.313533	0	0	0	0	0	0	-0.013129	1.154616	0.02347	0	0	0
1.97	0.341783	0.667024	-0.387443	1.570201	-16.580374	93.118599	32.978281	3.016014	-6.77619	-57.409024	12.528133	0	0	47.384912	1.257489	-1.592901	-67.882819	20.310667	0	0	24.046444	-1.123172	-0.370824	-13.658851	248.67572	0.118503	0.383521	-0.005048	-0.312787	0	0	0	0	0	0	-0.013771	1.21108	0.024617	0	0	0
1.98	0.341484	0.666909	-0.393692	1.361536	-16.793161	93.037971	32.446336	2.882339	-6.7051	-57.12872	12.648025	0	0	48.390804	1.528177	-1.988171	-65.786053	20.488737	0	0	24.115718	-1.236683	-0.150936	-13.133021	249.476471	-2.003747	0.382986	-0.005056	-0.312129	0	0	0	0	0	0	-0.014195	1.248339	0.025375	0	0	0
1.99	0.341148	0.666792	-0.400096	1.104117	-17.006231	92.931839	31.910914	2.688278	-6.603292	-56.862657	12.749991	0	0	49.24466	1.835335	-2.37568	-63.560238	20.543882	0	0	24.201186	-1.394736	0.108294	-12.800536	249.667557	-3.99489	0.382548	-0.005069	-0.311562	0	0	0	0	0	0	-0.014388	1.26532	0.02572	0	0	0
2	0.340789	0.66668	-0.406695	0.804332	-17.207855	92.793999	31.357159	2.44414	-6.468988	-56.609748	12.826918	0	0	49.93666	2.166393	-2.754734	-61.252713	20.457948	0	0	24.296853	-1.589869	0.411034	-12.641301	249.139404	-5.856221	0.382212	-0.005081	-0.311083	0	0	0	0	0	0	-0.014356	1.262487	0.025662	0	0	0
2.01	0.340403	0.666575	-0.413529	0.490763	-17.384914	92.632812	30.764466	2.177227	-6.31735	-56.358951	12.8688	0	0	50.464661	2.49853	-3.106504	-58.926788	20.218193	0	0	24.396601	-1.796259	0.743387	-12.621568	247.848145	-7.614182	0.381973	-0.005082	-0.310681	0	0	0	0	0	0	-0.014134	1.24302	0.025267	0	0	0
2.02	0.339978	0.666473	-0.420638	0.200497	-17.524004	92.464233	30.109721	1.920374	-6.172059	-56.09481	12.865005	0	0	50.830705	2.807384	-3.405397	-56.654777	19.819711	0	0	24.494754	-1.981369	1.083042	-12.698053	245.801956	-9.325085	0.381816	-0.005066	-0.310344	0	0	0	0	0	0	-0.013774	1.211323	0.024622	0	0	0
2.03	0.3395	0.666363	-0.42806	-0.038883	-17.614416	92.302498	29.373608	1.69647	-6.054656	-55.805261	12.807359	0	0	51.038117	3.078061	-3.633487	-54.507993	19.266929	0	0	24.588256	-2.12136	1.409889	-12.822175	243.031082	-11.075506	0.381719	-0.00503	-0.310057	0	0	0	0	0	0	-0.013325	1.171865	0.02382	0	0	0
2.04	0.33895	0.666233	-0.435828	-0.216514	-17.649868	92.157494	28.544139	1.51129	-5.98139	-55.485206	12.690728	0	0	51.090478	3.310348	-3.786242	-52.550543	18.575709	0	0	24.67759	-2.207516	1.708511	-12.945722	239.548996	-12.963695	0.38166	-0.004976	-0.309809	0	0	0	0	0	0	-0.012838	1.129044	0.02295	0	0	0
2.05	0.33832	0.666069	-0.443965	-0.335797	-17.627867	92.033432	27.61674	1.35837	-5.959974	-55.135835	12.510851	0	0	50.991235	3.513245	-3.874522	-50.837207	17.776991	0	0	24.765539	-2.244089	1.969996	-13.019281	235.336792	-15.066206	0.381617	-0.004909	-0.309589	0	0	0	0	0	0	-0.012349	1.086033	0.022076	0	0	0
